<svg width="24" height="24" viewBox="0 0 24 24" fill="none" xmlns="http://www.w3.org/2000/svg">
<circle cx="12" cy="12" r="12" fill="white"/>
<g clip-path="url(#clip0_830_6491)">
<path d="M15.7398 9.54214C15.4772 9.39203 15.1394 9.39203 14.8392 9.54214L12.7377 10.7805L11.3117 11.5686L9.24773 12.807C8.98505 12.9571 8.64731 12.9571 8.3471 12.807L6.73345 11.8313C6.47076 11.6812 6.28313 11.3809 6.28313 11.0432V9.16687C6.28313 8.86666 6.43324 8.56645 6.73345 8.37881L8.3471 7.44065C8.60978 7.29054 8.94752 7.29054 9.24773 7.44065L10.8614 8.41634C11.1241 8.56645 11.3117 8.86666 11.3117 9.2044V10.4428L12.7377 9.61719V8.34129C12.7377 8.04107 12.5876 7.74086 12.2874 7.55323L9.28526 5.78948C9.02257 5.63937 8.68483 5.63937 8.38462 5.78948L5.30744 7.59075C5.00722 7.74086 4.85712 8.04107 4.85712 8.34129V11.8688C4.85712 12.169 5.00722 12.4692 5.30744 12.6569L8.3471 14.4206C8.60978 14.5707 8.94752 14.5707 9.24773 14.4206L11.3117 13.2198L12.7377 12.3942L14.8017 11.1933C15.0644 11.0432 15.4021 11.0432 15.7023 11.1933L17.316 12.1315C17.5787 12.2816 17.7663 12.5818 17.7663 12.9195V14.7959C17.7663 15.0961 17.6162 15.3963 17.316 15.5839L15.7398 16.5221C15.4772 16.6722 15.1394 16.6722 14.8392 16.5221L13.2256 15.5839C12.9629 15.4338 12.7752 15.1336 12.7752 14.7959V13.595L11.3492 14.4206V15.659C11.3492 15.9592 11.4993 16.2594 11.7995 16.447L14.8392 18.2108C15.1019 18.3609 15.4396 18.3609 15.7398 18.2108L18.7795 16.447C19.0422 16.2969 19.2298 15.9967 19.2298 15.659V12.094C19.2298 11.7937 19.0797 11.4935 18.7795 11.3059L15.7398 9.54214Z" fill="#8247E5"/>
</g>
<defs>
<clipPath id="clip0_830_6491">
<rect width="14.4102" height="12.5714" fill="white" transform="translate(4.85712 5.71428)"/>
</clipPath>
</defs>
</svg>
