<svg width="208" height="66" viewBox="0 0 208 66" fill="none" xmlns="http://www.w3.org/2000/svg">
<path d="M55.5 31V7.72727H61.8182V16.8182H70.1818V7.72727H76.5V31H70.1818V21.9091H61.8182V31H55.5ZM93.2727 7.72727H99.5909V22.6364C99.5909 24.4091 99.1667 25.9432 98.3182 27.2386C97.4773 28.5265 96.303 29.5227 94.7955 30.2273C93.2879 30.9242 91.5379 31.2727 89.5455 31.2727C87.5379 31.2727 85.7803 30.9242 84.2727 30.2273C82.7652 29.5227 81.5909 28.5265 80.75 27.2386C79.9167 25.9432 79.5 24.4091 79.5 22.6364V7.72727H85.8182V22.0909C85.8182 22.8106 85.9773 23.4545 86.2955 24.0227C86.6136 24.5833 87.053 25.0227 87.6136 25.3409C88.1818 25.6591 88.8258 25.8182 89.5455 25.8182C90.2727 25.8182 90.9167 25.6591 91.4773 25.3409C92.0379 25.0227 92.4773 24.5833 92.7955 24.0227C93.1136 23.4545 93.2727 22.8106 93.2727 22.0909V7.72727ZM102.594 7.72727H110.457L115.866 20.9091H116.139L121.548 7.72727H129.412V31H123.23V17.5455H123.048L117.866 30.8182H114.139L108.957 17.4545H108.776V31H102.594V7.72727ZM138.452 31H131.634L139.315 7.72727H147.952L155.634 31H148.815L143.724 14.1364H143.543L138.452 31ZM137.179 21.8182H149.997V26.5455H137.179V21.8182ZM178.011 7.72727V31H172.739L164.33 18.7727H164.193V31H157.875V7.72727H163.239L171.511 19.9091H171.693V7.72727H178.011ZM193.545 15C193.485 14.2424 193.201 13.6515 192.693 13.2273C192.193 12.803 191.432 12.5909 190.409 12.5909C189.758 12.5909 189.223 12.6705 188.807 12.8295C188.398 12.9811 188.095 13.1894 187.898 13.4545C187.701 13.7197 187.598 14.0227 187.591 14.3636C187.576 14.6439 187.625 14.8977 187.739 15.125C187.86 15.3447 188.049 15.5455 188.307 15.7273C188.564 15.9015 188.894 16.0606 189.295 16.2045C189.697 16.3485 190.174 16.4773 190.727 16.5909L192.636 17C193.924 17.2727 195.027 17.6326 195.943 18.0795C196.86 18.5265 197.61 19.053 198.193 19.6591C198.777 20.2576 199.205 20.9318 199.477 21.6818C199.758 22.4318 199.902 23.25 199.909 24.1364C199.902 25.6667 199.519 26.9621 198.761 28.0227C198.004 29.0833 196.92 29.8902 195.511 30.4432C194.11 30.9962 192.424 31.2727 190.455 31.2727C188.432 31.2727 186.667 30.9735 185.159 30.375C183.659 29.7765 182.492 28.8561 181.659 27.6136C180.833 26.3636 180.417 24.7652 180.409 22.8182H186.409C186.447 23.5303 186.625 24.1288 186.943 24.6136C187.261 25.0985 187.708 25.4659 188.284 25.7159C188.867 25.9659 189.561 26.0909 190.364 26.0909C191.038 26.0909 191.602 26.0076 192.057 25.8409C192.511 25.6742 192.856 25.4432 193.091 25.1477C193.326 24.8523 193.447 24.5152 193.455 24.1364C193.447 23.7803 193.33 23.4697 193.102 23.2045C192.883 22.9318 192.519 22.6894 192.011 22.4773C191.504 22.2576 190.818 22.053 189.955 21.8636L187.636 21.3636C185.576 20.9167 183.951 20.1705 182.761 19.125C181.58 18.072 180.992 16.6364 181 14.8182C180.992 13.3409 181.386 12.0492 182.182 10.9432C182.985 9.82954 184.095 8.96212 185.511 8.34091C186.936 7.7197 188.568 7.40909 190.409 7.40909C192.288 7.40909 193.913 7.72348 195.284 8.35227C196.655 8.98106 197.712 9.86742 198.455 11.0114C199.205 12.1477 199.583 13.4773 199.591 15H193.545ZM61.0909 60.2727C59.9602 60.2727 58.9602 59.9858 58.0909 59.4119C57.2273 58.8381 56.5511 58.0455 56.0625 57.0341C55.5739 56.017 55.3295 54.8437 55.3295 53.5142C55.3295 52.1733 55.5739 50.9943 56.0625 49.9773C56.5511 48.9545 57.2273 48.1591 58.0909 47.5909C58.9602 47.017 59.9602 46.7301 61.0909 46.7301C62.2216 46.7301 63.2188 47.017 64.0824 47.5909C64.946 48.1648 65.6222 48.9602 66.1108 49.9773C66.6051 50.9943 66.8523 52.1733 66.8523 53.5142C66.8523 54.8437 66.608 56.017 66.1193 57.0341C65.6307 58.0455 64.9517 58.8381 64.0824 59.4119C63.2188 59.9858 62.2216 60.2727 61.0909 60.2727ZM61.0909 58.8835C62 58.8835 62.7699 58.6392 63.4006 58.1506C64.0313 57.6619 64.5085 57.0114 64.8324 56.1989C65.1619 55.3864 65.3267 54.4915 65.3267 53.5142C65.3267 52.5369 65.1619 51.6392 64.8324 50.821C64.5085 50.0028 64.0313 49.3466 63.4006 48.8523C62.7699 48.358 62 48.1108 61.0909 48.1108C60.1875 48.1108 59.4176 48.358 58.7812 48.8523C58.1506 49.3466 57.6705 50.0028 57.3409 50.821C57.017 51.6392 56.8551 52.5369 56.8551 53.5142C56.8551 54.4915 57.017 55.3864 57.3409 56.1989C57.6705 57.0114 58.1506 57.6619 58.7812 58.1506C59.4119 58.6392 60.1818 58.8835 61.0909 58.8835ZM75.5689 46.9091V48.2301H69.1342V46.9091H75.5689ZM71.1456 60V44.9915C71.1456 44.2869 71.3075 43.6932 71.6314 43.2102C71.9609 42.7273 72.3899 42.3608 72.9183 42.1108C73.4467 41.8608 74.0064 41.7358 74.5973 41.7358C74.995 41.7358 75.3246 41.7699 75.5859 41.8381C75.853 41.9006 76.0632 41.9631 76.2166 42.0256L75.7734 43.3551C75.6598 43.321 75.5206 43.2812 75.3558 43.2358C75.1911 43.1903 74.9837 43.1676 74.7337 43.1676C74.0746 43.1676 73.5661 43.3523 73.2081 43.7216C72.8501 44.0909 72.6712 44.6193 72.6712 45.3068L72.6626 60H71.1456ZM99.2557 42.5455V60H97.7045L87.392 45.3835H87.2557V60H85.6619V42.5455H87.2045L97.5511 57.179H97.6875V42.5455H99.2557ZM108.874 60.2727C107.652 60.2727 106.595 59.9886 105.703 59.4205C104.811 58.8466 104.121 58.054 103.632 57.0426C103.149 56.0256 102.908 54.8551 102.908 53.5312C102.908 52.2131 103.149 51.0426 103.632 50.0199C104.121 48.9915 104.794 48.1875 105.652 47.608C106.516 47.0227 107.513 46.7301 108.643 46.7301C109.354 46.7301 110.038 46.8608 110.697 47.1222C111.357 47.3778 111.947 47.7727 112.47 48.3068C112.999 48.8352 113.416 49.5028 113.723 50.3097C114.03 51.1108 114.183 52.0597 114.183 53.1562V53.9062H103.956V52.5682H112.632C112.632 51.7273 112.462 50.9716 112.121 50.3011C111.786 49.625 111.317 49.0909 110.714 48.6989C110.118 48.3068 109.428 48.1108 108.643 48.1108C107.814 48.1108 107.084 48.3324 106.453 48.7756C105.822 49.2187 105.328 49.804 104.97 50.5312C104.618 51.2585 104.439 52.054 104.433 52.9176V53.7188C104.433 54.7585 104.612 55.6676 104.97 56.446C105.334 57.2187 105.848 57.8182 106.513 58.2443C107.178 58.6705 107.964 58.8835 108.874 58.8835C109.493 58.8835 110.036 58.7869 110.501 58.5938C110.973 58.4006 111.368 58.142 111.686 57.8182C112.01 57.4886 112.254 57.1278 112.419 56.7358L113.859 57.2045C113.661 57.7557 113.334 58.2642 112.879 58.7301C112.43 59.196 111.868 59.571 111.192 59.8551C110.521 60.1335 109.749 60.2727 108.874 60.2727ZM121.183 60.2983C120.393 60.2983 119.671 60.1449 119.018 59.8381C118.364 59.5256 117.844 59.0767 117.458 58.4915C117.072 57.9006 116.879 57.1847 116.879 56.3438C116.879 55.696 117.001 55.1506 117.245 54.7074C117.489 54.2642 117.836 53.9006 118.285 53.6165C118.734 53.3324 119.265 53.108 119.879 52.9432C120.492 52.7784 121.168 52.6506 121.907 52.5597C122.64 52.4687 123.259 52.3892 123.765 52.321C124.276 52.2528 124.665 52.1449 124.933 51.9972C125.2 51.8494 125.333 51.6108 125.333 51.2812V50.9744C125.333 50.0824 125.066 49.3807 124.532 48.8693C124.004 48.3523 123.242 48.0938 122.248 48.0938C121.305 48.0938 120.535 48.3011 119.938 48.7159C119.347 49.1307 118.933 49.6193 118.694 50.1818L117.254 49.6619C117.549 48.946 117.958 48.375 118.481 47.9489C119.004 47.517 119.589 47.2074 120.237 47.0199C120.884 46.8267 121.54 46.7301 122.205 46.7301C122.705 46.7301 123.225 46.7955 123.765 46.9261C124.31 47.0568 124.816 47.2841 125.282 47.608C125.748 47.9261 126.126 48.3722 126.415 48.946C126.705 49.5142 126.85 50.2358 126.85 51.1108V60H125.333V57.929H125.239C125.058 58.3153 124.788 58.6903 124.43 59.054C124.072 59.4176 123.623 59.7159 123.083 59.9489C122.543 60.1818 121.91 60.2983 121.183 60.2983ZM121.387 58.9091C122.194 58.9091 122.893 58.7301 123.484 58.3722C124.075 58.0142 124.529 57.5398 124.847 56.9489C125.171 56.3523 125.333 55.696 125.333 54.9801V53.0881C125.219 53.196 125.029 53.2926 124.762 53.3778C124.501 53.4631 124.197 53.5398 123.85 53.608C123.509 53.6705 123.168 53.7244 122.827 53.7699C122.487 53.8153 122.18 53.8551 121.907 53.8892C121.168 53.9801 120.538 54.1222 120.015 54.3153C119.492 54.5085 119.092 54.7756 118.813 55.1165C118.535 55.4517 118.396 55.8835 118.396 56.4119C118.396 57.2074 118.68 57.8239 119.248 58.2614C119.816 58.6932 120.529 58.9091 121.387 58.9091ZM130.886 60V46.9091H132.36V48.9205H132.471C132.732 48.2614 133.187 47.7301 133.835 47.3267C134.488 46.9176 135.227 46.7131 136.05 46.7131C136.175 46.7131 136.315 46.7159 136.468 46.7216C136.621 46.7273 136.749 46.733 136.852 46.7386V48.2812C136.783 48.2699 136.664 48.2528 136.494 48.2301C136.323 48.2074 136.138 48.196 135.94 48.196C135.258 48.196 134.65 48.3409 134.116 48.6307C133.587 48.9148 133.17 49.3097 132.863 49.8153C132.556 50.321 132.403 50.8977 132.403 51.5455V60H130.886Z" fill="white"/>
<path d="M15.6545 29.8327C15.6545 27.7234 17.3556 26.0134 19.4541 26.0134H29.2466C31.3451 26.0134 33.0463 27.7234 33.0463 29.8327V54.1807C33.0463 56.29 31.3451 58 29.2466 58H19.4541C17.3556 58 15.6545 56.29 15.6545 54.1807V29.8327Z" fill="white"/>
<path fill-rule="evenodd" clip-rule="evenodd" d="M29.2466 26.9817H19.4541C17.8877 26.9817 16.6178 28.2582 16.6178 29.8327V54.1807C16.6178 55.7553 17.8877 57.0317 19.4541 57.0317H29.2466C30.8131 57.0317 32.0829 55.7553 32.0829 54.1807V29.8327C32.0829 28.2582 30.8131 26.9817 29.2466 26.9817ZM19.4541 26.0134C17.3556 26.0134 15.6545 27.7234 15.6545 29.8327V54.1807C15.6545 56.29 17.3556 58 19.4541 58H29.2466C31.3451 58 33.0463 56.29 33.0463 54.1807V29.8327C33.0463 27.7234 31.3451 26.0134 29.2466 26.0134H19.4541Z" fill="#323232"/>
<path d="M16.5928 46.5018V36.587H33.1152C31.8707 41.6713 24.4507 46.7763 16.5928 46.5018Z" fill="#7E7E7E" fill-opacity="0.45"/>
<path d="M14.4503 25.0882C14.4503 28.2301 11.6468 30.7771 8.18848 30.7771C4.7302 30.7771 1.9267 28.2301 1.9267 25.0882C1.9267 21.9463 4.7302 19.3993 8.18848 19.3993C11.6468 19.3993 14.4503 21.9463 14.4503 25.0882Z" fill="white"/>
<path fill-rule="evenodd" clip-rule="evenodd" d="M8.18848 29.8088C11.2087 29.8088 13.4869 27.6055 13.4869 25.0882C13.4869 22.5708 11.2087 20.3676 8.18848 20.3676C5.1683 20.3676 2.89005 22.5708 2.89005 25.0882C2.89005 27.6055 5.1683 29.8088 8.18848 29.8088ZM8.18848 30.7771C11.6468 30.7771 14.4503 28.2301 14.4503 25.0882C14.4503 21.9463 11.6468 19.3993 8.18848 19.3993C4.7302 19.3993 1.9267 21.9463 1.9267 25.0882C1.9267 28.2301 4.7302 30.7771 8.18848 30.7771Z" fill="#323232"/>
<path d="M33.4764 25.0882C33.4764 28.2301 36.2799 30.7771 39.7382 30.7771C43.1965 30.7771 46 28.2301 46 25.0882C46 21.9463 43.1965 19.3993 39.7382 19.3993C36.2799 19.3993 33.4764 21.9463 33.4764 25.0882Z" fill="white"/>
<path fill-rule="evenodd" clip-rule="evenodd" d="M39.7382 29.8088C36.718 29.8088 34.4398 27.6055 34.4398 25.0882C34.4398 22.5708 36.718 20.3676 39.7382 20.3676C42.7584 20.3676 45.0366 22.5708 45.0366 25.0882C45.0366 27.6055 42.7584 29.8088 39.7382 29.8088ZM39.7382 30.7771C36.2799 30.7771 33.4764 28.2301 33.4764 25.0882C33.4764 21.9463 36.2799 19.3993 39.7382 19.3993C43.1965 19.3993 46 21.9463 46 25.0882C46 28.2301 43.1965 30.7771 39.7382 30.7771Z" fill="#323232"/>
<path d="M40.4607 23.4138C40.4607 34.4477 34.6317 40.5383 24.091 40.5383C13.5504 40.5383 7.46597 34.4477 7.46597 23.4138C7.46597 12.3799 13.5504 0.352777 24.091 0.352777C34.6317 0.352777 40.4607 12.3799 40.4607 23.4138Z" fill="white"/>
<path fill-rule="evenodd" clip-rule="evenodd" d="M35.5341 35.4427C38.0849 32.7751 39.4974 28.767 39.4974 23.4138C39.4974 18.0495 38.0768 12.4714 35.4157 8.26519C32.7633 4.07267 28.9419 1.3211 24.091 1.3211C19.2361 1.3211 15.3492 4.07719 12.6333 8.27362C9.9099 12.4814 8.42932 18.0575 8.42932 23.4138C8.42932 28.7562 9.89977 32.7638 12.5127 35.4348C15.1234 38.1037 19.0035 39.57 24.091 39.57C29.1778 39.57 32.989 38.1044 35.5341 35.4427ZM24.091 40.5383C34.6317 40.5383 40.4607 34.4477 40.4607 23.4138C40.4607 12.3799 34.6317 0.352777 24.091 0.352777C13.5504 0.352777 7.46597 12.3799 7.46597 23.4138C7.46597 34.4477 13.5504 40.5383 24.091 40.5383Z" fill="#323232"/>
<path fill-rule="evenodd" clip-rule="evenodd" d="M24.2176 26.7587C24.4732 26.8331 24.6204 27.1015 24.5465 27.3584C24.1058 28.8893 23.875 29.6943 23.846 31.1303C24.2981 31.2948 24.7997 31.3462 25.6452 31.3392C25.9113 31.337 26.1287 31.552 26.1309 31.8194C26.1331 32.0868 25.9192 32.3053 25.6532 32.3075C24.5849 32.3164 23.8887 32.2403 23.1534 31.8867C22.9861 31.8063 22.8796 31.6364 22.8796 31.45C22.8796 29.6652 23.1433 28.749 23.619 27.0964L23.6211 27.0893C23.695 26.8324 23.9621 26.6844 24.2176 26.7587Z" fill="#323232"/>
<path d="M17.2284 28.1199C17.2284 29.3263 16.4987 30.3044 15.5985 30.3044C14.6983 30.3044 13.9686 29.3263 13.9686 28.1199C13.9686 26.9135 14.6983 25.9355 15.5985 25.9355C16.4987 25.9355 17.2284 26.9135 17.2284 28.1199Z" fill="#323232"/>
<path fill-rule="evenodd" clip-rule="evenodd" d="M16.9437 29.8098C16.6145 30.251 16.1414 30.5464 15.5985 30.5464C15.0556 30.5464 14.5825 30.251 14.2533 29.8098C13.9242 29.3687 13.7277 28.7704 13.7277 28.1199C13.7277 27.4694 13.9242 26.8711 14.2533 26.43C14.5825 25.9889 15.0556 25.6934 15.5985 25.6934C16.1414 25.6934 16.6145 25.9889 16.9437 26.43C17.2728 26.8711 17.4693 27.4694 17.4693 28.1199C17.4693 28.7704 17.2728 29.3687 16.9437 29.8098ZM15.5985 30.3044C16.4987 30.3044 17.2284 29.3263 17.2284 28.1199C17.2284 26.9135 16.4987 25.9355 15.5985 25.9355C14.6983 25.9355 13.9686 26.9135 13.9686 28.1199C13.9686 29.3263 14.6983 30.3044 15.5985 30.3044Z" fill="#323232"/>
<path d="M16.7662 27.5837C16.7662 27.8511 16.5506 28.0679 16.2845 28.0679C16.0185 28.0679 15.8029 27.8511 15.8029 27.5837C15.8029 27.3163 16.0185 27.0996 16.2845 27.0996C16.5506 27.0996 16.7662 27.3163 16.7662 27.5837Z" fill="white"/>
<path fill-rule="evenodd" clip-rule="evenodd" d="M17.007 27.5837C17.007 27.9848 16.6836 28.31 16.2845 28.31C15.8855 28.31 15.562 27.9848 15.562 27.5837C15.562 27.1826 15.8855 26.8575 16.2845 26.8575C16.6836 26.8575 17.007 27.1826 17.007 27.5837ZM16.2845 28.0679C16.5506 28.0679 16.7662 27.8511 16.7662 27.5837C16.7662 27.3163 16.5506 27.0996 16.2845 27.0996C16.0185 27.0996 15.8029 27.3163 15.8029 27.5837C15.8029 27.8511 16.0185 28.0679 16.2845 28.0679Z" fill="#323232"/>
<path d="M34.5687 28.1199C34.5687 29.3264 33.839 30.3044 32.9388 30.3044C32.0386 30.3044 31.3089 29.3264 31.3089 28.1199C31.3089 26.9135 32.0386 25.9355 32.9388 25.9355C33.839 25.9355 34.5687 26.9135 34.5687 28.1199Z" fill="#323232"/>
<path fill-rule="evenodd" clip-rule="evenodd" d="M34.284 29.8098C33.9548 30.251 33.4817 30.5464 32.9388 30.5464C32.3959 30.5464 31.9228 30.251 31.5936 29.8098C31.2645 29.3687 31.0681 28.7705 31.0681 28.1199C31.0681 27.4694 31.2645 26.8711 31.5936 26.43C31.9228 25.9889 32.3959 25.6934 32.9388 25.6934C33.4817 25.6934 33.9548 25.9889 34.284 26.43C34.6131 26.8711 34.8096 27.4694 34.8096 28.1199C34.8096 28.7705 34.6131 29.3687 34.284 29.8098ZM32.9388 30.3044C33.839 30.3044 34.5687 29.3264 34.5687 28.1199C34.5687 26.9135 33.839 25.9355 32.9388 25.9355C32.0386 25.9355 31.3089 26.9135 31.3089 28.1199C31.3089 29.3264 32.0386 30.3044 32.9388 30.3044Z" fill="#323232"/>
<path d="M34.1065 27.5837C34.1065 27.8511 33.8909 28.0679 33.6248 28.0679C33.3588 28.0679 33.1432 27.8511 33.1432 27.5837C33.1432 27.3163 33.3588 27.0996 33.6248 27.0996C33.8909 27.0996 34.1065 27.3163 34.1065 27.5837Z" fill="white"/>
<path fill-rule="evenodd" clip-rule="evenodd" d="M22.0929 34.2757C22.2988 34.1064 22.6022 34.1369 22.7707 34.3438C23.0872 34.7326 23.6473 35.1807 24.2801 35.3073C24.8623 35.4237 25.5924 35.2871 26.3602 34.3438C26.5286 34.1369 26.8321 34.1064 27.038 34.2757C27.2439 34.445 27.2742 34.75 27.1058 34.957C26.1396 36.144 25.0634 36.4512 24.0921 36.257C23.1715 36.0729 22.4311 35.4558 22.0251 34.957C21.8567 34.75 21.887 34.445 22.0929 34.2757Z" fill="#323232"/>
<path d="M16.6178 33.1548C16.6178 33.8902 15.5934 34.4863 14.3298 34.4863C13.0662 34.4863 12.0419 33.8902 12.0419 33.1548C12.0419 32.4195 13.0662 31.8234 14.3298 31.8234C15.5934 31.8234 16.6178 32.4195 16.6178 33.1548Z" fill="#E8E8E8"/>
<path d="M35.644 33.1548C35.644 33.8902 34.6196 34.4863 33.356 34.4863C32.0924 34.4863 31.0681 33.8902 31.0681 33.1548C31.0681 32.4195 32.0924 31.8234 33.356 31.8234C34.6196 31.8234 35.644 32.4195 35.644 33.1548Z" fill="#E8E8E8"/>
<path d="M7.7068 19.8834C7.31176 14.5399 12.4031 3.25773 16.8586 2.16837C16.8586 2.16837 30.1047 -5.20915 36.789 7.2521C43.4732 19.7133 39.2565 31.5813 39.2565 31.5813C35.7644 27.9501 37.2094 26.7828 36.789 22.1341C29.3822 26.2986 22.6387 25.3303 18.0628 20.9728C16.377 24.483 13.3665 25.2092 12.4643 25.2092C12.9815 28.19 10.1152 30.734 8.79057 31.4603C7.40475 28.0711 8.00135 24.8472 7.7068 19.8834Z" fill="#323232"/>
<path d="M7.97315 11.51C8.09273 5.17958 13.2323 0.110639 19.5313 0.110639H28.7078C34.9784 0.110639 40.1056 5.13555 40.2643 11.4365L40.4607 19.2351H7.82723L7.97315 11.51Z" fill="white"/>
<path fill-rule="evenodd" clip-rule="evenodd" d="M28.7078 1.07896H19.5313C13.7572 1.07896 9.04594 5.7255 8.93633 11.5283L8.80904 18.2668H39.4727L39.3013 11.461C39.1558 5.68513 34.4558 1.07896 28.7078 1.07896ZM40.2643 11.4365C40.1056 5.13555 34.9784 0.110639 28.7078 0.110639H19.5313C13.2323 0.110639 8.09273 5.17958 7.97315 11.51L7.82723 19.2351H40.4607L40.2643 11.4365Z" fill="#323232"/>
<path d="M16.6178 8.09933C16.6178 3.82099 20.0683 0.35272 24.3246 0.35272Lnan nanCnan nan -nan -nan -nan -nanL-nan -nanC-nan -nan nan nan nan nanL24.3246 0.35272C28.581 0.35272 32.0314 3.82099 32.0314 8.09933V19.2351H16.6178V8.09933Z" fill="#323232" fill-opacity="0.38"/>
<path fill-rule="evenodd" clip-rule="evenodd" d="M31.0681 18.2668V8.09933C31.0681 4.35579 28.0489 1.32105 24.3246 1.32105C20.6003 1.32105 17.5812 4.35579 17.5812 8.09933V18.2668H31.0681ZM24.3246 0.35272C20.0683 0.35272 16.6178 3.82099 16.6178 8.09933V19.2351H32.0314V8.09933C32.0314 3.82099 28.581 0.35272 24.3246 0.35272Z" fill="#323232"/>
<path d="M-nan -nanC-nan -nan -nan -nan -nan -nanC-nan -nan 0.431307 18.3447 0.963351 18.3447C0.96335 18.3447 0.963352 18.3447 0.963351 18.3447H40.2199V19.313H0L-nan -nanZ" fill="#323232"/>
</svg>
